<?xml version="1.0" encoding="UTF-8" standalone="no"?>
<!DOCTYPE svg PUBLIC "-//W3C//DTD SVG 1.1//EN" "http://www.w3.org/Graphics/SVG/1.1/DTD/svg11.dtd">
<svg width="100%" height="100%" viewBox="0 0 350 113" version="1.1" xmlns="http://www.w3.org/2000/svg" xmlns:xlink="http://www.w3.org/1999/xlink" xml:space="preserve" xmlns:serif="http://www.serif.com/" style="fill-rule:evenodd;clip-rule:evenodd;stroke-linejoin:round;stroke-miterlimit:2;">
    <g transform="matrix(1,0,0,1,-81,-37.09)">
        <g transform="matrix(0.683594,0,0,0.220703,81,37.09)">
            <rect x="0" y="0" width="512" height="512" style="fill:rgb(2,116,179);"/>
        </g>
        <g transform="matrix(1,0,0,1,0.00125,0)">
            <g>
                <path d="M330.75,93.56L330.75,59.13C330.75,54.4 332.96,52.17 337.73,52.17C360.55,52.17 383.38,52.17 406.2,52.18C411.08,52.18 413.32,54.42 413.32,59.26C413.33,82.15 413.33,105.04 413.32,127.93C413.32,132.71 410.98,135.01 406.17,135.01C383.54,135.01 360.92,135.01 338.29,135C332.71,135 330.77,133.04 330.77,127.41L330.77,93.57C330.77,93.56 330.76,93.56 330.75,93.56ZM362.58,121.8L372.75,121.8C375.35,121.8 375.36,121.8 375.36,119.25C375.37,112.69 375.32,106.14 375.4,99.58C375.44,96.32 377.97,93.74 381.31,93.27C384.17,92.87 386.57,94.32 387.46,97.27C387.91,98.75 388.11,100.35 388.13,101.9C388.2,107.93 388.19,113.96 388.14,119.99C388.13,121.33 388.51,121.86 389.91,121.82C393.05,121.74 396.2,121.75 399.35,121.81C400.65,121.84 401.04,121.34 401.03,120.08C400.98,115.43 401.06,110.77 400.99,106.12C400.93,102.46 401.04,98.75 400.51,95.15C399.69,89.49 396.71,85.18 390.93,83.63C385.15,82.08 379.86,82.97 375.84,87.94C375.78,88.01 375.61,87.98 375.35,88.02C375.35,87.03 375.45,86.05 375.31,85.1C375.24,84.66 374.73,83.94 374.4,83.93C370.5,83.85 366.59,83.88 362.58,83.88L362.58,121.8ZM355.73,83.85C352.04,83.85 348.64,83.94 345.25,83.81C343.48,83.75 342.88,84.25 342.9,86.1C343,94.35 342.94,102.6 342.94,110.86C342.94,113.94 342.89,117.02 342.99,120.09C343.01,120.66 343.66,121.68 344.04,121.7C347.88,121.82 351.73,121.77 355.72,121.77C355.73,109.07 355.73,96.59 355.73,83.85ZM349.48,65.76C345.35,65.77 342.23,68.61 342.19,72.4C342.15,76.22 345.22,79.14 349.33,79.19C353.56,79.24 356.74,76.32 356.69,72.44C356.64,68.54 353.63,65.74 349.48,65.76Z" style="fill:white;fill-rule:nonzero;"/>
            </g>
            <g>
                <path d="M305.36,85.28L305.36,67.25L317.94,67.25L317.94,121.54L307.22,121.54C307.03,119.8 306.85,118.13 306.66,116.36C306.39,116.48 306.16,116.51 306.08,116.63C301.27,124.19 287.06,125.29 280.3,115.35C275.33,108.05 275.34,96.37 280.35,89.1C284.72,82.75 292.88,79.94 300.15,82.46C301.94,83.08 303.54,84.27 305.36,85.28ZM305.49,101.74L305.37,101.74C305.37,100.5 305.44,99.25 305.36,98.01C305.14,94.82 303.19,92.28 300.36,91.38C297.22,90.38 293.86,91.35 291.84,93.84C288.62,97.79 288.48,105.74 291.59,109.73C293.71,112.44 296.57,113.25 299.84,112.52C302.85,111.85 304.94,109.31 305.29,106.05C305.44,104.63 305.43,103.18 305.49,101.74Z" style="fill:white;fill-rule:nonzero;"/>
            </g>
            <g>
                <path d="M240.73,121.63C235.45,121.63 230.69,121.67 225.92,121.57C225.4,121.56 224.77,120.8 224.42,120.24C221.72,115.9 219.08,111.52 216.41,107.15C216.15,106.72 215.84,106.32 215.46,105.77C213.67,107.69 212.03,109.36 212.3,112.25C212.57,115.29 212.36,118.37 212.36,121.53L199.89,121.53L199.89,67.23L212.26,67.23L212.26,97.83C212.94,97.07 213.28,96.75 213.55,96.38C216.57,92.17 219.52,87.91 222.63,83.77C223.15,83.07 224.31,82.51 225.18,82.48C229.47,82.35 233.78,82.42 238.7,82.42C233.65,88 229,93.12 224.25,98.35C229.68,106.03 235.05,113.61 240.73,121.63Z" style="fill:white;fill-rule:nonzero;"/>
            </g>
            <g>
                <path d="M156.51,121.48L156.51,84.19L169.02,84.19L169.02,89.15C171.28,86.12 173.68,84.23 176.9,83.54C186.23,81.55 193.8,86.98 194.46,96.88C194.99,104.91 194.6,113 194.61,121.07C194.61,121.18 194.51,121.3 194.39,121.54L182.26,121.54C182.22,120.86 182.14,120.17 182.14,119.48C182.13,113.84 182.14,108.2 182.13,102.56C182.13,101.38 182.12,100.19 181.95,99.03C181.39,95.12 179.05,92.94 175.64,93.07C172.04,93.2 169.12,96.09 169.06,99.86C168.96,105.96 169.03,112.06 169.02,118.16L169.02,121.49C164.84,121.48 160.76,121.48 156.51,121.48Z" style="fill:white;fill-rule:nonzero;"/>
            </g>
            <g>
                <path d="M274.51,106.01L248.31,106.01C248.7,109.4 250.7,111.2 253.49,112.28C257.56,113.85 261.75,113.44 265.92,112.84C267.46,112.62 268.97,112.2 270.73,111.82C271.23,114.33 271.76,116.74 272.14,119.17C272.2,119.52 271.63,120.24 271.22,120.36C263.07,122.8 254.87,123.73 246.79,120.26C240.81,117.69 237.69,112.84 236.55,106.54C234.88,97.27 239.08,87.71 246.88,83.75C252.2,81.05 257.87,80.64 263.49,82.66C270.92,85.33 273.74,91.39 274.48,98.7C274.7,101.02 274.51,103.38 274.51,106.01ZM262.63,97.36C263.01,93.12 260.38,89.89 256.5,89.67C252.03,89.42 248.43,92.82 248.41,97.36L262.63,97.36Z" style="fill:white;fill-rule:nonzero;"/>
            </g>
            <g>
                <path d="M98.67,67.22L111.13,67.22L111.13,110.25L133.06,110.25L133.06,121.5L98.67,121.5L98.67,67.22Z" style="fill:white;fill-rule:nonzero;"/>
            </g>
            <g>
                <path d="M150.67,121.55L138.3,121.55L138.3,84.08C142.15,84.08 145.99,84.04 149.81,84.16C150.11,84.17 150.62,85.32 150.62,85.95C150.67,95.71 150.66,105.46 150.66,115.22C150.67,117.29 150.67,119.36 150.67,121.55Z" style="fill:white;fill-rule:nonzero;"/>
            </g>
            <g>
                <path d="M144.34,78.98C140.24,78.96 137.44,76.36 137.42,72.55C137.4,68.68 140.24,66.04 144.46,66.02C148.62,66 151.49,68.68 151.48,72.57C151.46,76.43 148.59,79 144.34,78.98Z" style="fill:white;fill-rule:nonzero;"/>
            </g>
        </g>
    </g>
</svg>
