<?xml version="1.0" encoding="UTF-8" standalone="no"?>
<!DOCTYPE svg PUBLIC "-//W3C//DTD SVG 1.1//EN" "http://www.w3.org/Graphics/SVG/1.1/DTD/svg11.dtd">
<svg width="100%" height="100%" viewBox="0 0 60 60" version="1.1" xmlns="http://www.w3.org/2000/svg" xmlns:xlink="http://www.w3.org/1999/xlink" xml:space="preserve" xmlns:serif="http://www.serif.com/" style="fill-rule:evenodd;clip-rule:evenodd;stroke-linecap:round;stroke-linejoin:round;">
    <g transform="matrix(1,0,0,1,-290.486,-173.3)">
        <g transform="matrix(2.08872,0,0,2.08872,268.22,151.076)">
            <path d="M16.48,17.587C16.48,17.296 16.244,17.06 15.953,17.06L12.187,17.06C11.896,17.06 11.66,17.296 11.66,17.587L11.66,19.773C11.66,20.064 11.896,20.3 12.187,20.3L15.953,20.3C16.244,20.3 16.48,20.064 16.48,19.773L16.48,17.587Z" style="fill:none;stroke:rgb(30,30,30);stroke-width:2px;"/>
        </g>
        <g transform="matrix(2.08872,0,0,2.08872,268.22,151.076)">
            <path d="M11.66,23.57L11.66,35.49C11.663,35.775 11.778,36.048 11.98,36.25L13.47,37.74C13.8,38.068 14.34,38.068 14.67,37.74L16.16,36.25C16.366,36.051 16.481,35.776 16.48,35.49L16.48,23.57C16.48,22.978 15.992,22.49 15.4,22.49L12.74,22.49C12.148,22.49 11.66,22.978 11.66,23.57ZM38.01,15.98L38.01,36.5C37.988,37.332 37.292,38.001 36.46,37.99L21.71,37.99C20.88,38.001 20.186,37.33 20.17,36.5L20.17,13.12C20.186,12.303 20.863,11.64 21.68,11.64C21.69,11.64 21.7,11.64 21.71,11.64L33.5,11.64C33.567,11.639 33.631,11.664 33.68,11.71L35.8,13.76L37.93,15.76C37.991,15.815 38.021,15.898 38.01,15.98Z" style="fill:none;fill-rule:nonzero;stroke:rgb(30,30,30);stroke-width:2px;"/>
        </g>
        <g transform="matrix(2.08872,0,0,2.08872,268.22,151.076)">
            <path d="M33.5,11.64L33.5,15.28C33.5,15.29 33.499,15.3 33.499,15.311C33.499,15.656 33.775,15.944 34.12,15.96L38.01,15.96" style="fill:none;fill-rule:nonzero;stroke:rgb(30,30,30);stroke-width:2px;"/>
        </g>
    </g>
</svg>
