<?xml version="1.0" encoding="UTF-8" standalone="no"?>
<!DOCTYPE svg PUBLIC "-//W3C//DTD SVG 1.1//EN" "http://www.w3.org/Graphics/SVG/1.1/DTD/svg11.dtd">
<svg width="100%" height="100%" viewBox="0 0 68 49" version="1.1" xmlns="http://www.w3.org/2000/svg" xmlns:xlink="http://www.w3.org/1999/xlink" xml:space="preserve" xmlns:serif="http://www.serif.com/" style="fill-rule:evenodd;clip-rule:evenodd;stroke-linejoin:round;stroke-miterlimit:2;">
    <g transform="matrix(1,0,0,1,-139.579,-184.412)">
        <g transform="matrix(1.13391,0,0,1.13391,137.221,172.302)">
            <path d="M53.42,53.32L10.58,53.32C5.919,53.315 2.085,49.481 2.08,44.82L2.08,19.18C2.085,14.519 5.919,10.685 10.58,10.68L53.42,10.68C58.081,10.685 61.915,14.519 61.92,19.18L61.92,44.82C61.915,49.481 58.081,53.315 53.42,53.32ZM10.58,13.68C7.563,13.68 5.08,16.163 5.08,19.18L5.08,44.82C5.08,47.837 7.563,50.32 10.58,50.32L53.42,50.32C56.437,50.32 58.92,47.837 58.92,44.82L58.92,19.18C58.92,16.163 56.437,13.68 53.42,13.68L10.58,13.68Z" style="fill:rgb(30,30,30);fill-rule:nonzero;"/>
        </g>
        <g transform="matrix(1.13391,0,0,1.13391,137.221,172.302)">
            <path d="M32,38.08C30.15,38.083 28.348,37.482 26.87,36.37L3.52,18.71C3.12,18.429 2.882,17.971 2.882,17.482C2.882,16.659 3.559,15.982 4.382,15.982C4.727,15.982 5.062,16.102 5.33,16.32L28.68,34C30.644,35.466 33.356,35.466 35.32,34L58.67,16.32C58.938,16.102 59.273,15.982 59.618,15.982C60.441,15.982 61.118,16.659 61.118,17.482C61.118,17.971 60.88,18.429 60.48,18.71L37.13,36.37C35.652,37.482 33.85,38.083 32,38.08Z" style="fill:rgb(30,30,30);fill-rule:nonzero;"/>
        </g>
        <g transform="matrix(1.13391,0,0,1.13391,137.221,172.302)">
            <path d="M4.17,49.14C4.169,49.14 4.169,49.14 4.168,49.14C3.345,49.14 2.668,48.463 2.668,47.64C2.668,47.212 2.851,46.804 3.17,46.52L21.57,30.11C21.845,29.864 22.201,29.729 22.57,29.729C23.394,29.729 24.071,30.406 24.071,31.23C24.071,31.657 23.889,32.065 23.57,32.35L5.17,48.76C4.897,49.009 4.539,49.144 4.17,49.14ZM59.83,49.14C59.461,49.144 59.103,49.009 58.83,48.76L40.43,32.35C40.111,32.065 39.929,31.657 39.929,31.23C39.929,30.406 40.606,29.729 41.43,29.729C41.799,29.729 42.155,29.864 42.43,30.11L60.82,46.52C61.139,46.804 61.322,47.212 61.322,47.64C61.322,48.463 60.645,49.14 59.822,49.14C59.821,49.14 59.821,49.14 59.82,49.14L59.83,49.14Z" style="fill:rgb(30,30,30);fill-rule:nonzero;"/>
        </g>
    </g>
</svg>
