<?xml version="1.0" encoding="UTF-8" standalone="no"?>
<!DOCTYPE svg PUBLIC "-//W3C//DTD SVG 1.1//EN" "http://www.w3.org/Graphics/SVG/1.1/DTD/svg11.dtd">
<svg width="100%" height="100%" viewBox="0 0 48 60" version="1.1" xmlns="http://www.w3.org/2000/svg" xmlns:xlink="http://www.w3.org/1999/xlink" xml:space="preserve" xmlns:serif="http://www.serif.com/" style="fill-rule:evenodd;clip-rule:evenodd;stroke-linejoin:round;stroke-miterlimit:2;">
    <g transform="matrix(1,0,0,1,-225.312,-173.481)">
        <g transform="matrix(1.84495,-2.46519e-32,2.46519e-32,1.84495,217.932,171.636)">
            <path d="M30,4.8C30,2.7 28.3,1 26.2,1L7.8,1C5.7,1 4,2.7 4,4.8L4,29.2C4,31.3 5.7,33 7.8,33L26.2,33C28.3,33 30,31.3 30,29.2L30,4.8ZM28,29.2C28,30.2 27.2,31 26.2,31L7.8,31C6.8,31 6,30.2 6,29.2L6,4.8C6,3.8 6.8,3 7.8,3L26.2,3C27.2,3 28,3.8 28,4.8L28,29.2Z" style="fill:rgb(30,30,30);fill-rule:nonzero;"/>
        </g>
        <g transform="matrix(1.84495,-2.46519e-32,2.46519e-32,1.84495,217.932,171.636)">
            <path d="M10.9,19L22.7,19C23,19 23.3,18.9 23.5,18.6C23.7,18.4 23.8,18.1 23.7,17.8C23.3,15.4 21.8,13.5 19.8,12.6C20.4,11.9 20.8,11 20.8,9.9C20.8,7.7 19,5.9 16.8,5.9C14.6,5.9 12.8,7.7 12.8,9.9C12.8,10.9 13.2,11.8 13.8,12.6C11.8,13.6 10.2,15.5 9.9,17.8C9.9,18.1 9.9,18.4 10.1,18.6C10.3,18.9 10.6,19 10.9,19ZM14.8,10C14.8,8.9 15.7,8 16.8,8C17.9,8 18.8,8.9 18.8,10C18.8,11.1 17.9,12 16.8,12C15.7,12 14.8,11.1 14.8,10ZM16.8,14C18.8,14 20.6,15.2 21.4,17L12.2,17C13,15.2 14.8,14 16.8,14ZM25,22L9,22C8.4,22 8,22.4 8,23C8,23.6 8.4,24 9,24L25,24C25.6,24 26,23.6 26,23C26,22.4 25.6,22 25,22ZM25,26L9,26C8.4,26 8,26.4 8,27C8,27.6 8.4,28 9,28L25,28C25.6,28 26,27.6 26,27C26,26.4 25.6,26 25,26Z" style="fill:rgb(30,30,30);fill-rule:nonzero;"/>
        </g>
    </g>
</svg>
