<?xml version="1.0" encoding="UTF-8" standalone="no"?>
<!DOCTYPE svg PUBLIC "-//W3C//DTD SVG 1.1//EN" "http://www.w3.org/Graphics/SVG/1.1/DTD/svg11.dtd">
<svg width="100%" height="100%" viewBox="0 0 25 25" version="1.1" xmlns="http://www.w3.org/2000/svg" xmlns:xlink="http://www.w3.org/1999/xlink" xml:space="preserve" xmlns:serif="http://www.serif.com/" style="fill-rule:evenodd;clip-rule:evenodd;stroke-linejoin:round;stroke-miterlimit:2;">
    <g transform="matrix(1,0,0,1,-112.475,-224.359)">
        <g transform="matrix(0.224614,0,0,0.224614,87.7488,146.366)">
            <g>
                <path d="M154.05,435.2L154.05,390.31C158.8,390.31 163.42,390.28 168.04,390.37C168.43,390.38 169.04,391.23 169.12,391.75C169.29,392.87 169.17,394.04 169.17,395.2C169.48,395.16 169.69,395.19 169.75,395.11C174.51,389.23 180.76,388.17 187.61,390.01C194.45,391.84 197.97,396.95 198.95,403.65C199.57,407.92 199.45,412.3 199.51,416.64C199.59,422.15 199.49,427.66 199.55,433.17C199.57,434.66 199.11,435.25 197.56,435.22C193.84,435.14 190.11,435.13 186.39,435.23C184.73,435.27 184.28,434.65 184.29,433.06C184.36,425.92 184.37,418.78 184.28,411.64C184.26,409.8 184.01,407.91 183.49,406.16C182.44,402.67 179.61,400.94 176.21,401.42C172.26,401.98 169.26,405.04 169.22,408.9C169.13,416.66 169.19,424.42 169.18,432.18C169.18,435.2 169.17,435.2 166.09,435.2L154.05,435.2Z" style="fill-rule:nonzero;"/>
            </g>
            <g>
                <path d="M145.93,390.28L145.93,435.18C141.2,435.18 136.65,435.24 132.1,435.09C131.65,435.08 130.88,433.86 130.85,433.19C130.72,429.55 130.79,425.9 130.79,422.26C130.79,412.49 130.85,402.72 130.74,392.95C130.71,390.76 131.42,390.16 133.52,390.23C137.54,390.38 141.57,390.28 145.93,390.28Z" style="fill-rule:nonzero;"/>
            </g>
            <g>
                <path d="M138.86,368.85C143.77,368.84 147.33,372.14 147.4,376.76C147.46,381.36 143.7,384.81 138.69,384.75C133.82,384.7 130.19,381.24 130.23,376.72C130.27,372.23 133.96,368.87 138.86,368.85Z" style="fill-rule:nonzero;"/>
            </g>
        </g>
        <g transform="matrix(0.224614,0,0,0.224614,87.7488,146.366)">
            <path d="M212.65,455.47L117.14,455.47C114.01,455.47 111.47,452.93 111.47,449.8L111.47,354.29C111.47,351.16 114.01,348.62 117.14,348.62L212.65,348.62C215.78,348.62 218.32,351.16 218.32,354.29L218.32,449.8C218.32,452.92 215.77,455.47 212.65,455.47ZM117.14,352.06C115.91,352.06 114.91,353.06 114.91,354.29L114.91,449.8C114.91,451.03 115.91,452.03 117.14,452.03L212.65,452.03C213.88,452.03 214.88,451.03 214.88,449.8L214.88,354.29C214.88,353.06 213.88,352.06 212.65,352.06L117.14,352.06Z" style="fill-rule:nonzero;stroke:black;stroke-width:2.78px;"/>
        </g>
    </g>
</svg>
