<?xml version="1.0" encoding="UTF-8" standalone="no"?>
<!DOCTYPE svg PUBLIC "-//W3C//DTD SVG 1.1//EN" "http://www.w3.org/Graphics/SVG/1.1/DTD/svg11.dtd">
<svg width="100%" height="100%" viewBox="0 0 24 24" version="1.1" xmlns="http://www.w3.org/2000/svg" xmlns:xlink="http://www.w3.org/1999/xlink" xml:space="preserve" xmlns:serif="http://www.serif.com/" style="fill-rule:evenodd;clip-rule:evenodd;stroke-linejoin:round;stroke-miterlimit:2;">
    <g transform="matrix(1,0,0,1,-79.926,-224.671)">
        <g transform="matrix(0.220325,0,0,0.220325,55.5955,184.111)">
            <path d="M214.93,184.09L114.86,184.09C112.41,184.09 110.43,186.07 110.43,188.52L110.43,288.59C110.43,291.04 112.41,293.02 114.86,293.02L214.93,293.02C217.38,293.02 219.36,291.04 219.36,288.59L219.36,188.52C219.36,186.07 217.37,184.09 214.93,184.09ZM144.47,274.55C139.33,274.55 134.38,274.61 129.44,274.46C128.95,274.44 128.11,273.13 128.09,272.39C127.95,268.44 128.02,264.47 128.02,260.51C128.02,249.9 128.09,239.28 127.97,228.67C127.94,226.29 128.71,225.64 130.99,225.72C135.36,225.88 139.73,225.77 144.47,225.77L144.47,274.55ZM136.25,219.77C130.96,219.71 127.02,215.96 127.06,211.04C127.11,206.17 131.12,202.51 136.44,202.49C141.77,202.48 145.65,206.07 145.71,211.08C145.77,216.08 141.69,219.83 136.25,219.77ZM200.57,274.6C196.52,274.51 192.47,274.5 188.43,274.61C186.62,274.66 186.13,273.98 186.15,272.26C186.22,264.5 186.24,256.74 186.14,248.99C186.12,247 185.85,244.94 185.28,243.03C184.14,239.23 181.06,237.36 177.37,237.88C173.07,238.48 169.82,241.81 169.77,246C169.67,254.43 169.73,262.86 169.72,271.3C169.72,274.58 169.71,274.58 166.36,274.58L153.27,274.58L153.27,225.81C158.43,225.81 163.45,225.77 168.47,225.88C168.89,225.89 169.56,226.81 169.64,227.38C169.82,228.6 169.7,229.86 169.7,231.13C170.04,231.08 170.26,231.12 170.34,231.03C175.51,224.64 182.31,223.49 189.75,225.49C197.18,227.48 201.01,233.03 202.07,240.31C202.74,244.95 202.61,249.71 202.68,254.42C202.77,260.41 202.66,266.39 202.73,272.38C202.74,273.99 202.24,274.64 200.57,274.6Z" style="fill-rule:nonzero;"/>
        </g>
    </g>
</svg>
